<svg id="Layer_1" enable-background="new 0 0 170.7 193.976" height="512" viewBox="0 0 170.7 193.976" width="512" xmlns="http://www.w3.org/2000/svg"><g><path d="m122.414 57.292 1.585-3.581c1.258-2.841-.025-6.163-2.866-7.421s-6.163.026-7.421 2.867l-2.107 4.761c.958-.298 1.947-.457 2.949-.457 3.101.002 5.993 1.465 7.86 3.831z"/><path d="m101.161 77.509-4.652 10.51c-1.258 2.842.025 6.164 2.865 7.421 2.842 1.258 6.164-.026 7.421-2.866l6.831-15.43 53.533 23.698 3.542-8-49.498-21.914c-.902.803-1.947 1.45-3.11 1.89-5.399 2.041-11.062 3.594-16.932 4.691z"/><path d="m34.652 47.66-18.096-11.876c-2.308-1.515-5.409-.872-6.925 1.437-1.513 2.311-.872 5.41 1.439 6.925l16.36 10.737c2.01-3.046 4.505-5.462 7.222-7.223z"/><path d="m61.064 77.988c-9.611-1.423-16.456-3.515-19.018-4.375l-.023-.008-.125-.041c-5.202-1.833-7.943-7.555-6.111-12.755 1.408-3.997 5.201-6.682 9.434-6.682 1.13 0 2.248.192 3.323.571l.097.033.318.102c.381.125.943.301 1.69.516 1.402.404 3.691 1.018 6.646 1.643.568.12 1.178.243 1.815.366-2.385-6.279-7.183-11.103-13.063-11.179-8.798-.116-19.78 7.233-21.325 22.641-2 21.196-.414 34.313 7.194 55.344.142.315.287.62.432.92l28.992-40.87c-.114-2.121-.203-4.203-.276-6.226z"/><path d="m52.648 137.091h46.111l27.269 36.602c2.453 3.293 6.219 5.031 10.031 5.031 2.598 0 5.217-.807 7.461-2.479 5.535-4.123 6.679-11.955 2.555-17.49l-31.017-41.633c-2.371-3.182-6.055-5.032-10.022-5.032h-39.796c-1.11-4.063-1.908-8.3-2.504-12.563l-24.078 33.943c4.322 3.488 9.253 4.103 13.99 3.621z"/><ellipse cx="59.15" cy="22.498" rx="22.493" ry="22.495" transform="matrix(.227 -.974 .974 .227 23.824 75.005)"/><path d="m56.88 58.949c-2.915-.616-5.232-1.23-6.786-1.678-.776-.225-1.363-.406-1.739-.529-.189-.06-.325-.105-.404-.131-.071-.025-.071-.025-.071-.025-4.169-1.469-8.737.719-10.206 4.887-1.467 4.167.72 8.736 4.889 10.204.533.171 16.264 5.724 37.671 5.743 11.278-.002 24.173-1.562 37.151-6.473 4.133-1.564 6.215-6.184 4.65-10.314-1.563-4.133-6.182-6.213-10.313-4.649-10.723 4.061-21.685 5.438-31.489 5.436-9.296.001-17.523-1.237-23.353-2.471z"/><path d="m19.833 155.846h69.167c3.867 0 7.001-3.134 7.001-7.001 0-3.865-3.134-7-7.001-7h-56.377l4.888-6.779 1.085-1.505c1.616-2.241 1.107-5.366-1.131-6.98-2.241-1.616-5.366-1.109-6.98 1.132l-.029.041-5.533 7.674-10.997-74.275c-.568-3.824-4.127-6.465-7.95-5.899-3.824.566-6.465 4.126-5.899 7.95l12.832 86.666c.506 3.428 3.46 5.976 6.924 5.976z"/><path d="m158.386 164.753-13.702 22.097c-1.358 2.191-.684 5.067 1.506 6.426 2.191 1.358 5.067.684 6.426-1.507l13.702-22.097c1.358-2.19.684-5.066-1.507-6.425s-5.067-.684-6.425 1.506z"/></g></svg>