<svg id="Layer_1" viewBox="0 0 1000 1000" xmlns="http://www.w3.org/2000/svg" data-name="Layer 1"><path d="m717.82 770.63a49.52 49.52 0 0 1 -41.56-22.87 16 16 0 0 1 26.85-17.42 17.64 17.64 0 0 0 14.72 8.29 17.16 17.16 0 0 0 12.46-5.43 19.9 19.9 0 0 0 5.49-13.9c0-9.53-6.47-17.64-15.14-19.1-1.17-.08-2.36-.19-3.55-.35-24.74-3.35-43.4-25.23-43.39-50.91a51.73 51.73 0 0 1 14.41-36.06 48.91 48.91 0 0 1 35.53-15.26 49.51 49.51 0 0 1 41.56 22.87 16 16 0 0 1 -26.84 17.42 17.65 17.65 0 0 0 -14.72-8.29 17.22 17.22 0 0 0 -12.46 5.43 19.93 19.93 0 0 0 -5.48 13.9c0 9.73 6.74 18 15.67 19.18a14 14 0 0 0 1.53.14c.5 0 1 .07 1.49.13 24.74 3.35 43.39 25.23 43.39 50.91a51.73 51.73 0 0 1 -14.41 36.06 49 49 0 0 1 -35.55 15.26z"/><rect height="59.73" rx="16" width="32" x="704.74" y="570.03"/><rect height="59.73" rx="16" width="32" x="704.71" y="738.49"/><path d="m720.73 846.89c-89.73 0-162.73-73.02-162.73-162.76s73-162.77 162.76-162.77 162.76 73 162.76 162.77-73.05 162.76-162.79 162.76zm0-293.53c-72.1 0-130.73 58.64-130.73 130.77s58.66 130.76 130.76 130.76 130.76-58.66 130.76-130.76-58.69-130.77-130.79-130.77z"/><path d="m745.91 916h-575.76a53.7 53.7 0 0 1 -53.64-53.64v-724.72a53.7 53.7 0 0 1 53.64-53.64h575.76a53.7 53.7 0 0 1 53.64 53.64v413.82a16 16 0 0 1 -32 0v-413.82a21.67 21.67 0 0 0 -21.64-21.64h-575.76a21.67 21.67 0 0 0 -21.64 21.64v724.72a21.67 21.67 0 0 0 21.64 21.64h575.76a21.67 21.67 0 0 0 21.64-21.64v-45.57a16 16 0 0 1 32 0v45.57a53.7 53.7 0 0 1 -53.64 53.64z"/><path d="m694.71 496h-473.35a16 16 0 0 1 0-32h473.35a16 16 0 0 1 0 32z"/><path d="m603.58 611.71h-382.22a16 16 0 0 1 0-32h382.22a16 16 0 0 1 0 32z"/><path d="m576.5 727.43h-355.14a16 16 0 0 1 0-32h355.14a16 16 0 0 1 0 32z"/><path d="m556.72 843.15h-335.36a16 16 0 0 1 0-32h335.36a16 16 0 0 1 0 32z"/><path d="m268.78 387.35c-20.83 0-40.07-10.58-54.2-29.79-12.92-17.58-20.09-40.66-20.21-65v-.86c.12-24.38 7.29-47.45 20.21-65 14.13-19.21 33.37-29.79 54.2-29.79 25.31 0 48.61 16.09 62.32 43a16 16 0 1 1 -28.52 14.51c-8.14-16-20.77-25.55-33.8-25.55-22.95 0-42.34 28.94-42.41 63.25s19.46 63.25 42.41 63.25c14.41 0 28.38-11.93 36.13-30.62v-12.75h-20.91v5.19a16 16 0 1 1 -32 0v-21.19a16 16 0 0 1 16-16h52.91a16 16 0 0 1 16 16v31.78a16.15 16.15 0 0 1 -1 5.59c-12.41 33.28-38.13 53.98-67.13 53.98z"/><path d="m649.77 387.2a16 16 0 0 1 -16-16v-157.6a16 16 0 0 1 32 0v157.6a16 16 0 0 1 -16 16z"/><path d="m705.7 229h-110.3a16 16 0 0 1 0-32h110.3a16 16 0 0 1 0 32z"/><path d="m458.17 387.2c-18 0-35.14-5.18-48.23-14.59-14.47-10.41-22.77-25.34-22.77-41a16 16 0 0 1 32 0c0 11.14 16 23.55 39 23.55s39-12.41 39-23.55-16-23.55-39-23.55h-.28c-18 0-35.15-5.18-48.24-14.6-14.47-10.4-22.77-25.33-22.77-40.95s8.3-30.55 22.77-41c13.09-9.41 30.22-14.59 48.24-14.59s35.15 5.18 48.24 14.59c14.47 10.41 22.77 25.33 22.77 41a16 16 0 1 1 -32 0c0-11.14-16-23.55-39-23.55s-39 12.41-39 23.55 16 23.55 39 23.55h.28c18 0 35.15 5.18 48.24 14.59 14.47 10.41 22.77 25.33 22.77 41s-8.3 30.55-22.77 41c-13.1 9.35-30.23 14.55-48.25 14.55z"/></svg>