<svg id="Capa_1" enable-background="new 0 0 512.005 512.005" height="512" viewBox="0 0 512.005 512.005" width="512" xmlns="http://www.w3.org/2000/svg"><g><path d="m343.002 97.005h87.242c-15.781-15.82-69.933-69.92-87.242-87.163z"/><path d="m497.002 223.005h-482c-8.284 0-15 6.716-15 15v164c0 8.284 6.716 15 15 15h482c8.284 0 15-6.716 15-15v-164c0-8.285-6.715-15-15-15zm-329 56h-25v97c0 8.284-6.716 15-15 15s-15-6.716-15-15v-97h-25c-8.284 0-15-6.716-15-15s6.716-15 15-15h80c8.284 0 15 6.716 15 15s-6.716 15-15 15zm137.274 111.042c-7.751 2.913-16.403-1.013-19.315-8.769l-5.361-14.274h-49.156l-5.412 14.307c-2.27 6.001-7.975 9.697-14.032 9.697-10.408 0-17.759-10.446-14.027-20.311 43.686-115.494 41.784-110.475 41.905-110.769 2.718-6.642 9.111-10.924 16.274-10.924 7.595 0 14.018 4.801 16.431 11.327l41.462 110.399c2.912 7.756-1.013 16.404-8.769 19.317zm118.739.959c-4.681 0-9.291-2.184-12.219-6.283l-27.794-38.911-27.794 38.911c-2.928 4.098-7.539 6.283-12.219 6.283-12.064 0-19.318-13.746-12.193-23.72l33.772-47.281-33.772-47.281c-4.815-6.741-3.254-16.109 3.487-20.925 6.741-4.815 16.109-3.254 20.925 3.488l27.794 38.911 27.794-38.911c4.815-6.741 14.186-8.302 20.925-3.488 6.741 4.815 8.303 14.183 3.487 20.925l-33.772 47.281 33.772 47.281c7.126 9.976-.131 23.72-12.193 23.72z"/><path d="m73.002 482.005c0 16.542 13.458 30 30 30h306c16.542 0 30-13.458 30-30v-35h-366z"/><path d="m439.002 127.005h-111c-8.284 0-15-6.716-15-15v-111.998c-22.88-.013-77.762-.002-210-.002-16.542 0-30 14.458-30 31v162h366zm-215 32h-72c-8.284 0-15-6.716-15-15s6.716-15 15-15h72c8.284 0 15 6.716 15 15s-6.716 15-15 15zm0-64h-72c-8.284 0-15-6.716-15-15s6.716-15 15-15h72c8.284 0 15 6.716 15 15s-6.716 15-15 15z"/><path d="m242.791 337.005h26.541l-13.223-35.209z"/></g></svg>